<mxfile host="Electron" modified="2024-07-18T06:34:32.269Z" agent="Mozilla/5.0 (Windows NT 10.0; Win64; x64) AppleWebKit/537.36 (KHTML, like Gecko) draw.io/21.2.1 Chrome/112.0.5615.87 Electron/24.1.2 Safari/537.36" etag="Xkea6e6FJ5yNMyg_ehRr" version="21.2.1" type="device">
  <diagram name="Page-1" id="1KvLHjhDO8Ya7sMIbihE">
    <mxGraphModel dx="2603" dy="75" grid="1" gridSize="10" guides="0" tooltips="1" connect="0" arrows="0" fold="1" page="1" pageScale="1" pageWidth="1169" pageHeight="827" math="0" shadow="0">
      <root>
        <mxCell id="0" />
        <mxCell id="1" parent="0" />
        <mxCell id="Zq6veke_SO07f4gpi4If-5" value="деструкт присв (массивы) (1)" style="swimlane;horizontal=0;whiteSpace=wrap;html=1;swimlaneLine=1;fontStyle=0;align=center;verticalAlign=middle;startSize=23;" parent="1" vertex="1">
          <mxGeometry x="100" y="880" width="330" height="180" as="geometry">
            <mxRectangle x="-350" y="180" width="40" height="150" as="alternateBounds" />
          </mxGeometry>
        </mxCell>
        <mxCell id="Zq6veke_SO07f4gpi4If-43" value="" style="ellipse;whiteSpace=wrap;html=1;aspect=fixed;" parent="Zq6veke_SO07f4gpi4If-5" vertex="1">
          <mxGeometry x="290" y="80" width="20.58" height="20.58" as="geometry" />
        </mxCell>
        <mxCell id="X8u6DkRlm3TRKGyDGFCc-3" value="let arr = [&quot;Яблоко&quot;, &quot;Груша&quot;];&#xa;let [item1, item2] = arr;" style="text;html=1;strokeColor=none;fillColor=none;align=left;verticalAlign=middle;whiteSpace=wrap;rounded=0;" parent="Zq6veke_SO07f4gpi4If-5" vertex="1">
          <mxGeometry x="50" y="57" width="190" height="30" as="geometry" />
        </mxCell>
        <mxCell id="X8u6DkRlm3TRKGyDGFCc-5" value="let arr = [&quot;Яблоко&quot;, &quot;Груша&quot;, &quot;Апельсин&quot;];&lt;br&gt;let [apple, , orange] = arr;&amp;nbsp; // Грушу скипнули" style="text;html=1;strokeColor=none;fillColor=none;align=left;verticalAlign=middle;whiteSpace=wrap;rounded=0;" parent="Zq6veke_SO07f4gpi4If-5" vertex="1">
          <mxGeometry x="50" y="126" width="270" height="30" as="geometry" />
        </mxCell>
        <mxCell id="X8u6DkRlm3TRKGyDGFCc-6" value="Базовый" style="text;html=1;strokeColor=none;fillColor=none;align=center;verticalAlign=middle;whiteSpace=wrap;rounded=0;fontSize=12;fontFamily=Helvetica;fontColor=default;fontStyle=1" parent="Zq6veke_SO07f4gpi4If-5" vertex="1">
          <mxGeometry x="30" y="30" width="60" height="30" as="geometry" />
        </mxCell>
        <mxCell id="X8u6DkRlm3TRKGyDGFCc-7" value="С пропуском элементов" style="text;html=1;strokeColor=none;fillColor=none;align=center;verticalAlign=middle;whiteSpace=wrap;rounded=0;fontSize=12;fontFamily=Helvetica;fontColor=default;fontStyle=1" parent="Zq6veke_SO07f4gpi4If-5" vertex="1">
          <mxGeometry x="30" y="96" width="150" height="30" as="geometry" />
        </mxCell>
        <mxCell id="X8u6DkRlm3TRKGyDGFCc-8" value="ДП работает только для &lt;i&gt;итерируемых &lt;/i&gt;объектов" style="text;html=1;strokeColor=none;fillColor=none;align=center;verticalAlign=middle;whiteSpace=wrap;rounded=0;fontSize=12;fontFamily=Helvetica;fontColor=default;" parent="Zq6veke_SO07f4gpi4If-5" vertex="1">
          <mxGeometry x="30" y="-2" width="280" height="30" as="geometry" />
        </mxCell>
        <mxCell id="Zq6veke_SO07f4gpi4If-14" value="деструкт присв (объекты) (2)" style="swimlane;horizontal=0;whiteSpace=wrap;html=1;swimlaneLine=1;fontStyle=0;align=center;verticalAlign=middle;" parent="1" vertex="1">
          <mxGeometry x="430" y="880" width="330" height="180" as="geometry">
            <mxRectangle x="-350" y="180" width="40" height="150" as="alternateBounds" />
          </mxGeometry>
        </mxCell>
        <mxCell id="Zq6veke_SO07f4gpi4If-17" value="" style="ellipse;whiteSpace=wrap;html=1;aspect=fixed;" parent="Zq6veke_SO07f4gpi4If-14" vertex="1">
          <mxGeometry x="290" y="80" width="20.58" height="20.58" as="geometry" />
        </mxCell>
        <mxCell id="X8u6DkRlm3TRKGyDGFCc-12" value="let &lt;b&gt;{&lt;/b&gt; a, b, c &lt;b&gt;}&lt;/b&gt; = obj" style="text;html=1;strokeColor=none;fillColor=none;align=center;verticalAlign=middle;whiteSpace=wrap;rounded=0;fontSize=12;fontFamily=Helvetica;fontColor=default;" parent="Zq6veke_SO07f4gpi4If-14" vertex="1">
          <mxGeometry x="26" width="110" height="30" as="geometry" />
        </mxCell>
        <mxCell id="X8u6DkRlm3TRKGyDGFCc-13" value="&lt;b&gt;Имена переменных и свойств - одинаковые&lt;/b&gt;&lt;br&gt;&amp;nbsp; &amp;nbsp; let user = { name: &quot;Tom&quot;, age: 14 };&lt;br&gt;&amp;nbsp; &amp;nbsp; let {age, name} = user;" style="text;html=1;strokeColor=none;fillColor=none;align=left;verticalAlign=middle;whiteSpace=wrap;rounded=0;" parent="Zq6veke_SO07f4gpi4If-14" vertex="1">
          <mxGeometry x="30" y="40" width="270" height="40" as="geometry" />
        </mxCell>
        <mxCell id="X8u6DkRlm3TRKGyDGFCc-14" value="&lt;b&gt;Явное сопоставл переменных и свойств&lt;/b&gt;&lt;br&gt;&amp;nbsp; &amp;nbsp;&amp;nbsp;{ свойство: переменная }&lt;br&gt;&amp;nbsp; &amp;nbsp; let user = {&amp;nbsp; name: &quot;Huck&quot;,&amp;nbsp; age: 15,&amp;nbsp; state: &quot;Illinois&quot; };&lt;br&gt;&amp;nbsp; &amp;nbsp; let { state: s,&amp;nbsp;age: a,&amp;nbsp;name } = user;&lt;br&gt;&amp;nbsp; &amp;nbsp; св-во state положить в переменную s,&lt;br&gt;&amp;nbsp; &amp;nbsp; age - в a, name - в name" style="text;html=1;strokeColor=none;fillColor=none;align=left;verticalAlign=middle;whiteSpace=wrap;rounded=0;" parent="Zq6veke_SO07f4gpi4If-14" vertex="1">
          <mxGeometry x="30" y="98" width="300" height="70" as="geometry" />
        </mxCell>
        <mxCell id="Zq6veke_SO07f4gpi4If-16" value="тема" style="swimlane;horizontal=0;whiteSpace=wrap;html=1;swimlaneLine=1;fontStyle=0;align=center;verticalAlign=middle;startSize=23;" parent="1" vertex="1">
          <mxGeometry x="760" y="880" width="330" height="180" as="geometry">
            <mxRectangle x="-350" y="180" width="40" height="150" as="alternateBounds" />
          </mxGeometry>
        </mxCell>
        <mxCell id="Zq6veke_SO07f4gpi4If-18" value="" style="ellipse;whiteSpace=wrap;html=1;aspect=fixed;" parent="Zq6veke_SO07f4gpi4If-16" vertex="1">
          <mxGeometry x="290" y="80" width="20.58" height="20.58" as="geometry" />
        </mxCell>
        <mxCell id="Zq6veke_SO07f4gpi4If-19" value="?.&amp;nbsp; опциональная цепочка" style="swimlane;horizontal=0;whiteSpace=wrap;html=1;swimlaneLine=1;fontStyle=0;align=center;verticalAlign=middle;" parent="1" vertex="1">
          <mxGeometry x="760" y="1060" width="330" height="180" as="geometry">
            <mxRectangle x="-350" y="180" width="40" height="150" as="alternateBounds" />
          </mxGeometry>
        </mxCell>
        <mxCell id="Zq6veke_SO07f4gpi4If-20" value="" style="ellipse;whiteSpace=wrap;html=1;aspect=fixed;" parent="Zq6veke_SO07f4gpi4If-19" vertex="1">
          <mxGeometry x="290" y="80" width="20.58" height="20.58" as="geometry" />
        </mxCell>
        <mxCell id="Giftc3M8tgQd4pNcsDE9-1" value="* Является сахаром, а не оператором.&lt;br style=&quot;font-size: 11px;&quot;&gt;&lt;div style=&quot;font-size: 11px;&quot;&gt;&lt;span style=&quot;background-color: initial; font-size: 11px;&quot;&gt;* Для обращ к св-вам и мет-м, кот мб null или undefined.&lt;/span&gt;&lt;/div&gt;&lt;div style=&quot;font-size: 11px;&quot;&gt;&lt;span style=&quot;background-color: initial; font-size: 11px;&quot;&gt;* Провер выраж &lt;i style=&quot;font-size: 11px;&quot;&gt;слева&lt;/i&gt; от себя.Если оно undef, возвр undef, иначе вычисл дальше. Так что надо размещ ?. &lt;i style=&quot;font-size: 11px;&quot;&gt;после &lt;/i&gt;потенциально отсутств вещи.&lt;/span&gt;&lt;/div&gt;" style="text;html=1;strokeColor=none;fillColor=none;align=left;verticalAlign=middle;whiteSpace=wrap;rounded=0;fontSize=11;" vertex="1" parent="Zq6veke_SO07f4gpi4If-19">
          <mxGeometry x="30" y="5" width="290" height="60" as="geometry" />
        </mxCell>
        <mxCell id="Giftc3M8tgQd4pNcsDE9-2" value="let user = { name: &quot;Tom&quot; };&amp;nbsp; // св-ва address нет&lt;br&gt;console.log(user.address.street);&amp;nbsp; // Ошибка&lt;br&gt;console.log(user.address?.street);  // undefined&lt;br&gt;console.log(user.address?.[&quot;street&quot;]);  // undefined" style="text;html=1;strokeColor=none;fillColor=none;align=left;verticalAlign=middle;whiteSpace=wrap;rounded=0;" vertex="1" parent="Zq6veke_SO07f4gpi4If-19">
          <mxGeometry x="31" y="87" width="270" height="60" as="geometry" />
        </mxCell>
        <mxCell id="Giftc3M8tgQd4pNcsDE9-3" value="Cвойства (обыч синтакс и через []):" style="text;html=1;strokeColor=none;fillColor=none;align=left;verticalAlign=middle;whiteSpace=wrap;rounded=0;fontStyle=1" vertex="1" parent="Zq6veke_SO07f4gpi4If-19">
          <mxGeometry x="24" y="62" width="230" height="30" as="geometry" />
        </mxCell>
        <mxCell id="Giftc3M8tgQd4pNcsDE9-4" value="Функции:" style="text;html=1;strokeColor=none;fillColor=none;align=left;verticalAlign=middle;whiteSpace=wrap;rounded=0;fontStyle=1" vertex="1" parent="Zq6veke_SO07f4gpi4If-19">
          <mxGeometry x="25" y="146" width="230" height="17" as="geometry" />
        </mxCell>
        <mxCell id="Giftc3M8tgQd4pNcsDE9-5" value="const result = user.noExist?.();&amp;nbsp; // result = undefined" style="text;html=1;strokeColor=none;fillColor=none;align=center;verticalAlign=middle;whiteSpace=wrap;rounded=0;" vertex="1" parent="Zq6veke_SO07f4gpi4If-19">
          <mxGeometry x="36" y="160" width="280" height="17" as="geometry" />
        </mxCell>
        <mxCell id="Zq6veke_SO07f4gpi4If-21" value="тема" style="swimlane;horizontal=0;whiteSpace=wrap;html=1;swimlaneLine=1;fontStyle=0;align=center;verticalAlign=middle;" parent="1" vertex="1">
          <mxGeometry x="430" y="1060" width="330" height="180" as="geometry">
            <mxRectangle x="-350" y="180" width="40" height="150" as="alternateBounds" />
          </mxGeometry>
        </mxCell>
        <mxCell id="Zq6veke_SO07f4gpi4If-22" value="" style="ellipse;whiteSpace=wrap;html=1;aspect=fixed;" parent="Zq6veke_SO07f4gpi4If-21" vertex="1">
          <mxGeometry x="290" y="80" width="20.58" height="20.58" as="geometry" />
        </mxCell>
        <mxCell id="Zq6veke_SO07f4gpi4If-23" value="тема" style="swimlane;horizontal=0;whiteSpace=wrap;html=1;swimlaneLine=1;fontStyle=0;align=center;verticalAlign=middle;" parent="1" vertex="1">
          <mxGeometry x="100" y="1060" width="330" height="180" as="geometry">
            <mxRectangle x="-350" y="180" width="40" height="150" as="alternateBounds" />
          </mxGeometry>
        </mxCell>
        <mxCell id="Zq6veke_SO07f4gpi4If-24" value="" style="ellipse;whiteSpace=wrap;html=1;aspect=fixed;" parent="Zq6veke_SO07f4gpi4If-23" vertex="1">
          <mxGeometry x="290" y="80" width="20.58" height="20.58" as="geometry" />
        </mxCell>
        <mxCell id="Zq6veke_SO07f4gpi4If-31" value="тема" style="swimlane;horizontal=0;whiteSpace=wrap;html=1;swimlaneLine=1;fontStyle=0;align=center;verticalAlign=middle;" parent="1" vertex="1">
          <mxGeometry x="760" y="1240" width="330" height="180" as="geometry">
            <mxRectangle x="-350" y="180" width="40" height="150" as="alternateBounds" />
          </mxGeometry>
        </mxCell>
        <mxCell id="Zq6veke_SO07f4gpi4If-32" value="" style="ellipse;whiteSpace=wrap;html=1;aspect=fixed;" parent="Zq6veke_SO07f4gpi4If-31" vertex="1">
          <mxGeometry x="290" y="80" width="20.58" height="20.58" as="geometry" />
        </mxCell>
        <mxCell id="Zq6veke_SO07f4gpi4If-33" value="тема" style="swimlane;horizontal=0;whiteSpace=wrap;html=1;swimlaneLine=1;fontStyle=0;align=center;verticalAlign=middle;" parent="1" vertex="1">
          <mxGeometry x="430" y="1240" width="330" height="180" as="geometry">
            <mxRectangle x="-350" y="180" width="40" height="150" as="alternateBounds" />
          </mxGeometry>
        </mxCell>
        <mxCell id="Zq6veke_SO07f4gpi4If-34" value="" style="ellipse;whiteSpace=wrap;html=1;aspect=fixed;" parent="Zq6veke_SO07f4gpi4If-33" vertex="1">
          <mxGeometry x="290" y="80" width="20.58" height="20.58" as="geometry" />
        </mxCell>
        <mxCell id="Zq6veke_SO07f4gpi4If-35" value="тема" style="swimlane;horizontal=0;whiteSpace=wrap;html=1;swimlaneLine=1;fontStyle=0;align=center;verticalAlign=middle;" parent="1" vertex="1">
          <mxGeometry x="100" y="1240" width="330" height="180" as="geometry">
            <mxRectangle x="-350" y="180" width="40" height="150" as="alternateBounds" />
          </mxGeometry>
        </mxCell>
        <mxCell id="Zq6veke_SO07f4gpi4If-36" value="" style="ellipse;whiteSpace=wrap;html=1;aspect=fixed;" parent="Zq6veke_SO07f4gpi4If-35" vertex="1">
          <mxGeometry x="290" y="80" width="20.58" height="20.58" as="geometry" />
        </mxCell>
        <mxCell id="Zq6veke_SO07f4gpi4If-37" value="тема" style="swimlane;horizontal=0;whiteSpace=wrap;html=1;swimlaneLine=1;fontStyle=0;align=center;verticalAlign=middle;" parent="1" vertex="1">
          <mxGeometry x="760" y="1420" width="330" height="180" as="geometry">
            <mxRectangle x="-350" y="180" width="40" height="150" as="alternateBounds" />
          </mxGeometry>
        </mxCell>
        <mxCell id="Zq6veke_SO07f4gpi4If-38" value="" style="ellipse;whiteSpace=wrap;html=1;aspect=fixed;" parent="Zq6veke_SO07f4gpi4If-37" vertex="1">
          <mxGeometry x="290" y="80" width="20.58" height="20.58" as="geometry" />
        </mxCell>
        <mxCell id="Zq6veke_SO07f4gpi4If-39" value="тема" style="swimlane;horizontal=0;whiteSpace=wrap;html=1;swimlaneLine=1;fontStyle=0;align=center;verticalAlign=middle;" parent="1" vertex="1">
          <mxGeometry x="430" y="1420" width="330" height="180" as="geometry">
            <mxRectangle x="-350" y="180" width="40" height="150" as="alternateBounds" />
          </mxGeometry>
        </mxCell>
        <mxCell id="Zq6veke_SO07f4gpi4If-40" value="" style="ellipse;whiteSpace=wrap;html=1;aspect=fixed;" parent="Zq6veke_SO07f4gpi4If-39" vertex="1">
          <mxGeometry x="290" y="80" width="20.58" height="20.58" as="geometry" />
        </mxCell>
        <mxCell id="Zq6veke_SO07f4gpi4If-41" value="тема" style="swimlane;horizontal=0;whiteSpace=wrap;html=1;swimlaneLine=1;fontStyle=0;align=center;verticalAlign=middle;" parent="1" vertex="1">
          <mxGeometry x="100" y="1420" width="330" height="180" as="geometry">
            <mxRectangle x="-350" y="180" width="40" height="150" as="alternateBounds" />
          </mxGeometry>
        </mxCell>
        <mxCell id="Zq6veke_SO07f4gpi4If-42" value="" style="ellipse;whiteSpace=wrap;html=1;aspect=fixed;" parent="Zq6veke_SO07f4gpi4If-41" vertex="1">
          <mxGeometry x="290" y="80" width="20.58" height="20.58" as="geometry" />
        </mxCell>
        <mxCell id="X8u6DkRlm3TRKGyDGFCc-9" value="let strings = new Set([&quot;Johny&quot;, &quot;Dotsville&quot;, &quot;JS&quot;]);&lt;br&gt;let user = {};&lt;br&gt;[user.name, user.surname] = strings;" style="text;html=1;strokeColor=none;fillColor=none;align=left;verticalAlign=middle;whiteSpace=wrap;rounded=0;" parent="1" vertex="1">
          <mxGeometry x="-520" y="1060" width="290" height="50" as="geometry" />
        </mxCell>
        <mxCell id="X8u6DkRlm3TRKGyDGFCc-10" value="let user = { name: &quot;Tom&quot;, surname: &quot;Sawyer&quot;,&lt;br&gt;&amp;nbsp; age: 14,&amp;nbsp; state: &quot;Missouri&quot;&amp;nbsp; };&lt;br&gt;&lt;br&gt;for (let [prop, value] of Object.entries(user)) {&lt;br&gt;&amp;nbsp; console.log(prop + &quot;: &quot; + value);&lt;br&gt;}" style="text;html=1;strokeColor=none;fillColor=none;align=left;verticalAlign=middle;whiteSpace=wrap;rounded=0;" parent="1" vertex="1">
          <mxGeometry x="-520" y="1120" width="280" height="80" as="geometry" />
        </mxCell>
        <mxCell id="X8u6DkRlm3TRKGyDGFCc-11" value="let users = new Map([&lt;br&gt;&amp;nbsp; [&quot;tom&quot;, 6000], [&quot;huck&quot;, 6000], [&quot;jim&quot;, 40]&lt;br&gt;]);&lt;br&gt;&lt;br&gt;for (let [k, v] of users) {&lt;br&gt;&amp;nbsp; console.log(k + &quot; &quot; + v);&lt;br&gt;}" style="text;html=1;strokeColor=none;fillColor=none;align=left;verticalAlign=middle;whiteSpace=wrap;rounded=0;" parent="1" vertex="1">
          <mxGeometry x="-190" y="1040" width="280" height="120" as="geometry" />
        </mxCell>
        <mxCell id="X8u6DkRlm3TRKGyDGFCc-4" value="let [item1, item2] = &quot;Яблоко и Груша&quot;.split(&quot; и &quot;);" style="text;html=1;strokeColor=none;fillColor=none;align=left;verticalAlign=middle;whiteSpace=wrap;rounded=0;" parent="1" vertex="1">
          <mxGeometry x="-230" y="960" width="270" height="30" as="geometry" />
        </mxCell>
      </root>
    </mxGraphModel>
  </diagram>
</mxfile>
